<svg version="1.1" baseProfile="full" width="50" height="50" xmlns="http://www.w3.org/2000/svg">
    <g>
        <title>Breccia</title>
        <rect fill="#7451ebff" id="rect2" height="50" width="50" y="0" x="0" />
        <path id="path4" d="m0.01614,49.92494c-0.01026,-0.53681 -0.01957,-0.55419 -0.00868,-0.74661c-0.00125,-0.20535 -0.05427,-1.13746 0.14153,-1.27478c0.57387,-0.4025 0.69673,-0.01507 1.63656,0.6127c0.93983,0.62776 0.82322,0.59771 1.34576,1.43388c0,0 -0.13797,-0.01228 -0.97864,-0.0067c-0.71499,-0.00028 -0.83246,0.00016 -1.00891,-0.01181c-0.2357,0.01667 -0.66269,-0.02064 -1.1276,-0.00668l-0.00001,0.00001z" />
        <path id="path6" d="m48.80206,49.9203c-0.32489,-0.00295 -0.42269,0.00738 -0.67629,0.00349c1.09647,-1.49031 1.22394,-1.75959 1.87434,-2.02025c0,0 0.0099,0.3389 0.00288,1.01485c-0.0104,1.00654 -0.00426,0.35182 -0.0104,1.00654c0,0 -0.05573,0.00748 -0.5444,-0.00463l-0.64613,0z" />
        <path id="path10" d="m0.01614,0.00402c0.99272,0.00239 2.64085,0.00603 3.08508,-0.00402c0.52129,0.83618 -0.09516,1.71407 -0.71921,2.31672c-0.74435,0.71816 -1.91853,1.51962 -2.35762,1.82679c-0.01543,-0.69446 -0.00347,-3.69606 -0.00825,-4.13947l0,-0.00003z" />
        <path id="path12" d="m5.67236,49.94087c0.44395,-0.00286 1.21947,-0.01397 1.78223,-0.0122c0.5713,0.00428 1.55082,0.01195 1.86337,0.00729c0.37106,-0.00552 0.72931,-2.70915 0.48746,-2.99164c-0.24436,-0.285 -1.21677,-0.56875 -1.98618,-0.52858c-0.77066,0.04018 -2.47238,-0.24483 -2.59393,0.77089c-0.12155,1.01446 0.12249,2.26582 0.44705,2.75422l0,0.00001z" />
        <path id="path14" d="m16.87393,49.93201c0.38412,0.00223 0.60929,0.00085 1.17569,0.00085c0.5664,0 1.99318,0.02947 2.60357,0.00801c0.76941,-0.81232 1.14698,-1.7385 0.45777,-2.34617c-0.68921,-0.61019 -1.18031,-1.72306 -2.15273,-1.0727c-0.97366,0.64911 -2.43228,2.75964 -2.30948,3.41001l0.22517,0z" />
        <path id="path16" d="m25.74005,49.93474c0.50489,-0.01256 1.8705,0.00965 3.12079,-0.00059c1.03131,-1.14755 0.67476,-2.58555 0.47176,-3.11287c-0.203,-0.52858 -0.68921,-0.97429 -1.37842,-0.69054c-0.68796,0.28375 -2.65898,2.70667 -2.21413,3.804z" />
        <path id="path18" d="m33.18235,49.92494c0.61609,0.00702 1.60914,-0.00129 3.09415,0.00299c1.90472,-1.17643 1.6211,-1.08274 1.70129,-1.81344c0.08145,-0.73198 -0.11403,-1.9285 -1.13406,-1.54305c-0.32455,0.1218 -3.19041,0.93538 -4.12273,1.82804c-0.93231,0.89268 0.05534,1.03706 0.46134,1.52546z" />
        <path id="path20" d="m41.29567,49.94012c0.52544,-0.00314 1.20949,-0.00945 1.81724,-0.01023c0.61754,-0.00816 1.7202,0.01389 2.4176,0.00043c0.203,-1.33396 2.05486,-4.77456 -2.16436,-3.64554c-0.7055,0.18917 -1.47992,0.12854 -1.96487,0.79551c-0.48495,0.66698 -0.99782,1.60592 -0.10561,2.85983z" />
        <path id="path22" d="m25.74495,0.01089c0.18671,0.45701 0.83277,2.4753 3.06204,-0.00188c-0.56494,0.00427 -2.47166,0.00074 -3.06204,0.00188z" />
        <path id="path24" d="m33.30472,0.00598c0.33709,0.40302 1.07561,1.17576 2.98158,-0.00063c-0.30189,-0.00094 -2.52525,0.00904 -2.98158,0.00063z" />
        <path id="path26" d="m41.28099,0.00151c0.2807,0.40805 1.06264,1.80293 1.67039,1.7615c0.60776,-0.03892 2.38592,-0.38168 2.58892,-1.7615c-0.74743,0.00942 -3.2696,0.00992 -4.25931,0z" />
        <path id="path28" d="m5.71152,0.00876c0.302,0.47587 1.16563,1.34635 1.73329,1.26198c0.5664,-0.08568 1.5486,-1.04976 1.87316,-1.26198c-0.40695,0.00465 -3.22299,0.00402 -3.60644,0z" />
        <path id="path30" d="m16.73198,0.00781c0.04636,0.25465 0.18832,1.50406 0.75472,1.50406c0.5664,0 2.3603,-0.68937 3.13222,-1.505c-0.73012,0.0054 -2.90282,0.00251 -3.88694,0.00094z" />
        <path id="path32" d="m36.57807,42.24615c0.18671,0.58005 1.72428,2.87766 2.36461,2.92161c0.64034,0.0452 2.03254,-1.08477 2.49619,-1.57192c0.46365,-0.48714 1.23682,-2.21349 0.15413,-2.41186c-1.08269,-0.19837 -2.89468,-0.8412 -3.37963,-0.64283c-0.48621,0.20088 -1.85711,1.01949 -1.63531,1.705z" />
        <path id="path34" d="m49.98653,38.68788c0.00664,0.17875 0.00401,0.50515 0.00802,1.46452c0.01015,0.78898 0.00589,1.15187 0.01437,1.51872c-0.26566,0.22097 -2.40722,2.23483 -2.93854,2.14695c-0.53132,-0.08789 -2.56386,-1.23795 -2.69544,-2.05781c-0.13158,-0.81986 0.19924,-2.25869 1.10524,-2.12435c0.906,0.13057 2.78441,0.13057 3.26936,-0.0678c0.48621,-0.19837 0.92749,-0.72581 1.23701,-0.88024l-0.00003,0z" />
        <path id="path36" d="m0.05248,38.68297c0.23182,-0.11551 1.36965,0 1.28068,1.01823c-0.08772,1.01949 -0.9486,1.7502 -1.21426,1.96992c-0.13839,0.11798 -0.10547,0.1516 -0.10324,-0.22563c-0.00142,-0.36743 0.00555,0.07216 0.0085,-0.14526c0.00627,-0.46109 -0.00467,-0.21724 0.00198,-0.83932c0.00723,-0.49976 0.00341,-0.41825 -0.00296,-0.89878c0.00307,-0.50724 -0.02856,-0.85078 0.02931,-0.87914l0,-0.00001z" />
        <path id="path38" d="m33.13954,42.78853c1.15912,0.11049 2.50622,0.8638 1.95735,1.80419s-3.21046,2.19717 -3.52374,1.33337s-0.07895,-3.2945 1.56638,-3.13756z" />
        <path id="path40" d="m25.30762,43.25936c0.78695,0.78847 1.17542,1.96113 2.34958,0.8638s2.68666,-2.8739 2.06011,-3.7377s-2.29444,-0.02888 -3.07763,0.36285s-1.95861,1.88329 -1.33205,2.51105z" />
        <path id="path42" d="m31.25988,40.35533c-0.67668,-0.67798 -1.40975,-3.37485 0.46992,-3.76657s3.36835,-0.47082 3.99491,0.39172s1.09647,1.88329 0.07769,2.66799s-3.44605,1.80544 -4.54252,0.70686z" />
        <path id="path44" d="m37.52542,34.86241c0.23684,-0.9542 1.64408,-2.19717 2.66285,-1.72635s4.22924,3.37485 3.68163,4.00261s-1.87966,1.25552 -3.05508,1.17768s-1.72302,-0.15694 -2.11525,-0.94164s-1.3308,-1.88454 -1.17416,-2.51231z" />
        <path id="path46" d="m44.96512,34.31374c-0.15664,0.70686 0.62655,-2.66799 1.48869,-2.11933s3.28941,3.37485 2.89719,4.31649s-1.09647,1.64725 -1.87966,1.09858s-1.95735,-1.49156 -2.27063,-2.27501s-0.23558,-1.02074 -0.23558,-1.02074z" />
        <path id="path48" d="m49.97755,30.07635c0.02737,0.25295 0.00313,0.4343 0.01469,1.0005c-0.00652,0.52853 0.00276,1.01411 0.00977,1.51546c-0.62655,-0.07784 -1.19989,-0.24095 -1.43422,-1.0244c-0.23433,-0.78345 0.70551,-1.6485 1.40976,-1.49156z" />
        <path id="path50" d="m16.14364,11.87124c0.54134,0.12053 1.3308,0.39172 1.72302,1.25552s0.31328,1.96113 -0.31328,1.88329s-0.78319,-0.54992 -1.40975,-0.62776c-0.62655,-0.07784 -1.17542,-0.23478 -1.40975,-1.01949c-0.23433,-0.78596 0.7055,-1.6485 1.40975,-1.49156z" />
        <path id="path52" d="m0.02256,30.09106c0.54136,0.12053 1.33081,0.38681 1.72302,1.25062c0.39222,0.8638 0.31328,1.96113 -0.31328,1.88329c-0.62655,-0.07784 -0.78319,-0.5401 -1.40975,-0.61794c0.00135,-0.5765 0.00058,-2.14422 0,-2.51596z" />
        <path id="path54" d="m3.29929,42.31771c0.93983,0.62776 0.86214,0.47082 0.62655,1.56941s-0.70425,2.82493 -1.56638,2.51105s-1.48744,-0.39298 -1.48744,-1.33462s0.78319,-2.27501 1.48869,-2.66799s0.93858,-0.07784 0.93858,-0.07784z" />
        <path id="path56" d="m7.76411,36.11793c-0.54886,-0.94164 -1.48869,-2.43321 -2.42852,-2.27627s-2.27188,4.86516 -1.48869,5.72896s1.72302,0.8638 2.7418,0.7056s2.19294,-1.01949 1.95735,-1.96113s-0.78194,-2.19717 -0.78194,-2.19717z" />
        <path id="path58" d="m6.74533,42.08167c0.73307,-0.59512 3.52374,-1.09858 4.0726,-0.47082s-2.34958,3.05971 -3.28941,3.13881s-2.42727,-1.33337 -0.78319,-2.66799z" />
        <path id="path60" d="m13.01087,42.94548c1.09396,-0.54866 1.3308,-1.41247 2.19294,-0.8638c0.86214,0.54992 1.95735,2.19717 1.40975,3.45269s-0.78319,3.37485 -2.19294,2.82493s-2.97613,-4.62912 -1.40975,-5.41382z" />
        <path id="path62" d="m17.94561,41.37607c0.20175,0.80856 2.11525,1.72635 3.75932,0.94164s2.0363,-1.88329 1.72302,-2.82493s-2.81949,-1.41247 -3.75932,-0.7847s-1.87966,2.04023 -1.72302,2.66799z" />
        <path id="path64" d="m11.68007,38.94286c0.37719,0.75583 0.70425,0.7847 2.7418,0.31388s3.83702,-1.01949 2.34958,-2.19717s-1.87966,-1.33337 -2.89719,-0.62776c-1.02003,0.70686 -2.50747,1.88329 -2.19419,2.51105z" />
        <path id="path66" d="m25.77753,30.23329c0.77066,0.34276 1.48869,2.35411 1.80197,3.53054c0.31328,1.17768 0.93983,2.27627 0.15664,3.29575s-1.56638,1.41247 -2.50622,0.7847s-1.48869,-1.41247 -1.48869,-3.21665s0,-2.43321 0.78319,-3.37485s0.54761,-1.33337 1.25311,-1.01949z" />
        <path id="path68" d="m29.61455,32.74434c-0.43232,-1.03706 -0.07769,-1.80544 1.56638,-1.80544s2.7418,-0.47082 3.44605,-0.7056s1.56638,-0.39172 1.95735,0.15694s0.39097,2.51105 -1.25311,2.98187s-5.32446,0.31388 -5.71668,-0.62776z" />
        <path id="path70" d="m44.49521,25.36813c0.3233,-0.96927 0.15664,-1.41247 1.56638,-0.94164s1.87966,-0.31388 2.19294,0.7847s0,2.35411 -0.39097,3.13881s-1.3308,1.41247 -1.87966,0.39172s-1.72302,-2.66799 -1.48869,-3.3736z" />
        <path id="path72" d="m45.20071,21.60155c0.93231,0.62274 2.0363,1.25552 2.66285,0.31388s1.25311,-3.37485 0.62655,-4.47218s-0.78319,-1.80544 -1.72302,-1.88329s-2.0363,1.41247 -2.0363,2.66799s0,3.05971 0.46992,3.3736z" />
        <path id="path74" d="m38.93517,27.5653c0.75312,-1.16638 1.87966,-1.80544 2.42852,-1.17768s2.97613,3.13881 2.7418,4.1583s-0.46992,1.64725 -1.64408,1.25552s-4.38838,-2.90277 -3.52625,-4.23614z" />
        <path id="path76" d="m3.22159,29.60552c0.84459,-1.1011 1.72302,-2.58889 2.89844,-2.51105s0.78319,1.80544 0.78319,2.90277s-0.07769,2.51105 -0.78319,2.35411s-3.68163,-1.72635 -2.89844,-2.74583z" />
        <path id="path78" d="m8.70394,33.60688c0.62655,1.25552 1.56638,2.27627 2.11525,2.27627s2.19294,-1.80544 2.42852,-2.74709s0.15664,-1.88329 -1.17542,-2.58889s-1.87966,-1.41247 -2.58391,-0.7847s-1.02003,3.3736 -0.78445,3.84442z" />
        <path id="path80" d="m15.987,32.5083c0.07017,-0.91277 0.62655,-1.96113 2.42852,-1.88329s3.44605,0.47082 3.52374,1.56941s-0.93983,2.59015 -2.50622,2.82493s-3.52374,-1.49031 -3.44605,-2.51105z" />
        <path id="path82" d="m21.15607,45.14264c-0.61152,-0.6127 -0.39097,-1.56941 0.86214,-1.17643s3.025,0.34904 2.70045,1.44511c-1.02755,3.47529 -2.93603,0.35908 -3.56259,-0.26868z" />
        <path id="path84" d="m14.6562,23.56268c0.66665,0.66794 0.86214,1.09858 2.19294,-0.15694s2.42852,-1.88329 1.56638,-2.51105s-0.54886,-0.7056 -1.40975,0.07784s-2.66285,2.27627 -2.34958,2.59015z" />
        <path id="path86" d="m1.26299,20.89469c0.18421,-1.05213 0,-1.17768 1.40975,-1.09858s2.81949,0.8638 3.21172,1.49156s-1.3308,3.64855 -2.11525,3.64855c-1.09396,0 -4.24177,5.92231 -2.50622,-4.04153z" />
        <path id="path88" d="m10.89688,22.30716c0.8471,0 2.27063,1.64725 1.3308,2.58889s-2.81949,2.11933 -3.99491,0.54992s-0.46992,-2.90277 0.54886,-3.92351s1.72302,0.7847 2.11525,0.7847z" />
        <path id="path90" d="m12.77654,28.35c-0.16917,-0.84999 -0.39097,-1.64725 1.09647,-1.88329s1.64408,-0.47082 2.19294,0s1.3308,1.25552 0.15664,1.88329s-3.28941,0.7847 -3.44605,0z" />
        <path id="path92" d="m19.74633,24.34739c0.78695,-0.02888 4.93474,1.64725 5.01243,2.43321s-0.62655,1.17768 -1.80197,1.72635s-2.19294,0.31388 -3.28941,-0.54992s-2.03505,-3.53054 0.07895,-3.60963z" />
        <path id="path94" d="m29.14464,23.09186c1.03005,0 1.09647,0.23604 1.25311,2.11933s0.46992,3.92351 -0.31328,3.92351s-1.80197,-0.94164 -2.19294,-1.88329s-2.38592,-1.43632 -1.83831,-2.22102s2.70045,-1.93853 3.09142,-1.93853z" />
        <path id="path96" d="m34.39265,24.03351c0.95236,0.27245 2.50622,1.17768 2.50622,2.19717s-1.09647,1.64725 -2.11525,1.96113s-1.48869,0.15694 -1.87966,-0.54992s0.39222,-3.92226 1.48869,-3.60838z" />
        <path id="path98" d="m37.05551,21.75849c0.47618,-0.5449 2.27063,-1.80544 3.36835,-1.96113s1.87966,0 2.0363,0.8638s-0.78319,3.37485 -1.72302,3.37485s-4.23049,-1.64976 -3.68163,-2.27752z" />
        <path id="path100" d="m32.35635,15.48087c1.89345,1.02074 3.91596,3.29575 3.13277,4.31649s-4.38588,2.74709 -4.38588,1.56941s0.23433,-6.43582 1.25311,-5.8859z" />
        <path id="path102" d="m39.56172,13.44064c0.86089,-0.08538 3.13277,1.17643 2.97613,2.11807s-1.64408,1.88329 -2.50622,1.96113s-2.42852,0.07784 -2.81949,-0.8638s1.56638,-3.13756 2.34958,-3.2154z" />
        <path id="path104" d="m42.85113,10.37967c0.96239,-0.19335 2.34958,-0.94164 3.21046,-0.62776s1.60523,1.23544 1.29195,2.09924s-1.21426,1.58949 -2.38842,1.43255s-2.50622,-0.7847 -2.7418,-1.25552s-0.15539,-1.49156 0.62781,-1.6485z" />
        <path id="path106" d="m47.23701,6.29922c0.78319,0.07784 2.11525,0.47082 1.87966,1.41247s-1.87966,1.17768 -2.89719,0.7056s-1.87966,-0.47082 -1.25311,-1.49156s1.48744,-0.70435 2.27063,-0.62651z" />
        <path id="path108" d="m0.02652,12.06286c-0.01056,0.28613 -0.00692,2.52421 -0.00692,2.52421c0.75659,0.77388 1.92966,2.81177 3.03151,2.727c1.01874,-0.07838 1.70226,-1.13326 1.78121,-2.38879c0.07769,-1.25552 0.40069,-2.94719 -1.08955,-3.32504c-1.56509,-0.39685 -3.71624,0.46262 -3.71624,0.46262z" />
        <path id="path110" d="m49.9976,12.02818c-0.74435,0.31388 -1.76187,0.45073 0,2.53114c0.01645,-1.58857 -0.00539,-2.12811 0,-2.53114z" />
        <path id="path112" d="m6.5298,17.97183c-0.09273,-0.46454 1.23306,-2.47213 1.80197,-2.25618c0.56766,0.21595 2.6829,2.00131 2.56511,2.51105c-0.11779,0.50974 -2.42852,1.64725 -2.89719,1.56941s-1.39095,-1.4313 -1.4699,-1.82428z" />
        <path id="path114" d="m13.93191,15.36285c0.4035,0.3076 2.48617,1.66734 2.27063,2.49096c-0.21553,0.82362 -1.60523,2.51105 -1.99745,2.35411c-0.39097,-0.15694 -1.68418,-1.9423 -1.50749,-2.98187s0.74435,-2.23609 1.23431,-1.8632z" />
        <path id="path116" d="m9.40819,7.86862c0.77191,-0.22097 2.25183,2.31519 2.6428,2.98187c0.39097,0.66668 0.13659,2.31519 -0.70425,2.68808c-0.84209,0.37289 -2.83954,0.3528 -3.36835,-0.68677c-0.52881,-1.03957 -0.6654,-2.78601 -0.11779,-3.31584c0.54886,-0.52858 1.411,-1.62716 1.54759,-1.66734z" />
        <path id="path118" d="m20.7651,19.16835c1.03256,-0.25864 2.66285,-0.07784 3.68163,1.33337s1.80197,2.04023 1.01752,2.58889s-2.0363,0.31388 -3.28941,-0.47082s-2.66285,-3.13756 -1.40975,-3.45144z" />
        <path id="path120" d="m25.6209,13.2837c0.78319,-0.47082 1.56764,-0.7056 2.19294,-0.15694c0.62655,0.54992 1.72302,3.13881 1.40975,4.1583s-1.40975,3.06097 -2.11525,2.11933s-3.05382,-5.17904 -1.48744,-6.12068z" />
        <path id="path122" d="m33.60946,10.61571c0.78319,-1.41247 3.95606,-3.42005 4.97484,-2.87013s1.05637,2.08543 0.03759,3.42005s-4.22924,3.68748 -4.69915,2.19717c-0.46992,-1.49156 -0.31328,-2.74709 -0.31328,-2.74709z" />
        <path id="path124" d="m41.51908,3.39645c0.9085,-0.28752 2.7418,-0.47082 2.97613,0.31388s0,2.27501 -1.17542,3.29575s-2.34958,1.96113 -2.50622,0.94164s-0.78194,-4.08046 0.7055,-4.55128z" />
        <path id="path126" d="m38.38631,1.98398c-0.5827,-0.52481 -1.17542,-0.31388 -2.42852,0.62776s-2.97613,2.82493 -2.19294,3.60963s1.48869,0.8638 2.81949,0s2.58516,-3.53179 1.80197,-4.2374z" />
        <path id="path128" d="m27.34392,3.31735c0.78319,-0.7056 3.28941,-0.7847 3.91596,0s0.54886,1.96113 -0.31328,2.98187s-1.95735,-0.94164 -3.05508,-1.09858s-2.19294,-0.15694 -1.40975,-1.01949s0.86214,-0.8638 0.86214,-0.8638z" />
        <path id="path130" d="m30.24111,8.81027c0.8659,-0.21721 1.40975,0 1.64408,0.8638s0.46992,2.19717 -0.31328,2.66799s-1.64408,0.23604 -1.87966,-0.8638s-0.39097,-2.43195 0.54886,-2.66799z" />
        <path id="path132" d="m19.512,16.6573c-1.14033,-0.57126 -1.09647,-0.7056 0.15664,-1.64725c1.25311,-0.94164 1.87966,-2.27501 2.50622,-1.33337c0.62655,0.94164 0.31328,1.88329 -0.46992,2.66799s-1.40975,0.7056 -2.19294,0.31263z" />
        <path id="path134" d="m22.33149,11.08653c-1.41225,-1.41498 0.62655,-1.96113 2.0363,-2.66799s1.3308,-1.96113 2.19294,-1.17768s2.03379,3.65483 0.31328,3.53054c-1.09647,-0.07784 -3.75932,1.09984 -4.54252,0.31514z" />
        <path id="path136" d="m18.10225,5.59361c-0.75186,-0.42311 0.61653,-1.02074 2.11525,-2.43321c1.3308,-1.25552 2.11525,-2.19717 2.81949,-1.56941s0.82455,4.37801 -0.74184,5.4766s-2.93979,-0.76838 -4.1929,-1.47399z" />
        <path id="path138" d="m15.59603,9.43803c1.00374,-0.88012 0.15664,-1.88329 1.80197,-1.33337s3.05508,1.41247 2.50622,2.51105s-1.48869,1.01949 -2.27063,0.07784s-2.66411,-0.7056 -2.03755,-1.25552z" />
        <path id="path140" d="m8.93827,4.65197c-0.06892,-1.01823 0.72555,-0.7282 1.80197,-1.88329c1.09647,-1.17768 2.34958,-2.27501 2.81949,-1.72635s2.19294,3.29575 1.40975,4.1583c-0.78319,0.8638 -0.75186,4.62535 -1.7343,3.50919c-1.44483,-1.64097 -4.21796,-2.88143 -4.29691,-4.05786z" />
        <path id="path142" d="m2.67273,9.12415c-0.8659,-0.796 -1.72302,-2.04023 -0.86214,-3.37485s1.87966,-3.29575 2.66285,-2.74709s2.50622,1.49156 1.64533,2.98187s-2.50622,4.00387 -3.44605,3.14007z" />
        <path id="path10-9" d="m47.44126,2.5339c-0.33333,-0.88012 0.04022,-1.90407 0.66358,-2.52933c0.62084,0.00251 1.88774,-0.00055 1.88774,-0.00055l-0.00098,0.72391l0.00125,1.55488c0,0 0.00627,1.45006 0.01406,1.85068c-0.01748,0.087 -1.41094,1.03012 -1.78137,0.48747c-0.55387,-1.0672 -0.63271,-1.68785 -0.78433,-2.08711l0.00004,0.00005z" />
    </g>
</svg>