<?xml version="1.0" standalone="no"?><!DOCTYPE svg PUBLIC "-//W3C//DTD SVG 1.1//EN" "http://www.w3.org/Graphics/SVG/1.1/DTD/svg11.dtd"><svg xmlns:xlink="http://www.w3.org/1999/xlink" version="1.1" class="highcharts-root" style="font-family: &quot;Lucida Grande&quot;, &quot;Lucida Sans Unicode&quot;, Arial, Helvetica, sans-serif; font-size: 12px;" xmlns="http://www.w3.org/2000/svg" width="600" height="400" viewBox="0 0 600 400" aria-label="Interactive chart" aria-hidden="false"><desc aria-hidden="true">Created with Highcharts 10.1.0</desc><defs aria-hidden="true"><clipPath id="highcharts-ohpkqqh-18-"><rect x="0" y="0" width="516" height="272" fill="none"></rect></clipPath><clipPath id="highcharts-ohpkqqh-29-"><rect x="0" y="0" width="516" height="272" fill="none"></rect></clipPath></defs><rect fill="#ffffff" class="highcharts-background" x="0" y="0" width="600" height="400" rx="0" ry="0" aria-hidden="true"></rect><rect fill="none" class="highcharts-plot-background" x="74" y="53" width="516" height="272" aria-hidden="true"></rect><g class="highcharts-grid highcharts-xaxis-grid" data-z-index="1" aria-hidden="true"><path fill="none" stroke-dasharray="none" data-z-index="1" class="highcharts-grid-line" d="M 78.5 53 L 78.5 325" opacity="1"></path><path fill="none" stroke-dasharray="none" data-z-index="1" class="highcharts-grid-line" d="M 584.5 53 L 584.5 325" opacity="1"></path></g><g class="highcharts-grid highcharts-yaxis-grid" data-z-index="1" aria-hidden="true"><path fill="none" stroke="#f2f2f2" stroke-width="1" stroke-dasharray="none" class="highcharts-minor-grid-line" d="M 74 325.5 L 590 325.5" opacity="1"></path><path fill="none" stroke="#f2f2f2" stroke-width="1" stroke-dasharray="none" class="highcharts-minor-grid-line" d="M 74 305.5 L 590 305.5" opacity="1"></path><path fill="none" stroke="#f2f2f2" stroke-width="1" stroke-dasharray="none" class="highcharts-minor-grid-line" d="M 74 293.5 L 590 293.5" opacity="1"></path><path fill="none" stroke="#f2f2f2" stroke-width="1" stroke-dasharray="none" class="highcharts-minor-grid-line" d="M 74 284.5 L 590 284.5" opacity="1"></path><path fill="none" stroke="#f2f2f2" stroke-width="1" stroke-dasharray="none" class="highcharts-minor-grid-line" d="M 74 277.5 L 590 277.5" opacity="1"></path><path fill="none" stroke="#f2f2f2" stroke-width="1" stroke-dasharray="none" class="highcharts-minor-grid-line" d="M 74 272.5 L 590 272.5" opacity="1"></path><path fill="none" stroke="#f2f2f2" stroke-width="1" stroke-dasharray="none" class="highcharts-minor-grid-line" d="M 74 268.5 L 590 268.5" opacity="1"></path><path fill="none" stroke="#f2f2f2" stroke-width="1" stroke-dasharray="none" class="highcharts-minor-grid-line" d="M 74 264.5 L 590 264.5" opacity="1"></path><path fill="none" stroke="#f2f2f2" stroke-width="1" stroke-dasharray="none" class="highcharts-minor-grid-line" d="M 74 260.5 L 590 260.5" opacity="1"></path><path fill="none" stroke="#f2f2f2" stroke-width="1" stroke-dasharray="none" class="highcharts-minor-grid-line" d="M 74 257.5 L 590 257.5" opacity="1"></path><path fill="none" stroke="#f2f2f2" stroke-width="1" stroke-dasharray="none" class="highcharts-minor-grid-line" d="M 74 237.5 L 590 237.5" opacity="1"></path><path fill="none" stroke="#f2f2f2" stroke-width="1" stroke-dasharray="none" class="highcharts-minor-grid-line" d="M 74 225.5 L 590 225.5" opacity="1"></path><path fill="none" stroke="#f2f2f2" stroke-width="1" stroke-dasharray="none" class="highcharts-minor-grid-line" d="M 74 216.5 L 590 216.5" opacity="1"></path><path fill="none" stroke="#f2f2f2" stroke-width="1" stroke-dasharray="none" class="highcharts-minor-grid-line" d="M 74 209.5 L 590 209.5" opacity="1"></path><path fill="none" stroke="#f2f2f2" stroke-width="1" stroke-dasharray="none" class="highcharts-minor-grid-line" d="M 74 204.5 L 590 204.5" opacity="1"></path><path fill="none" stroke="#f2f2f2" stroke-width="1" stroke-dasharray="none" class="highcharts-minor-grid-line" d="M 74 200.5 L 590 200.5" opacity="1"></path><path fill="none" stroke="#f2f2f2" stroke-width="1" stroke-dasharray="none" class="highcharts-minor-grid-line" d="M 74 196.5 L 590 196.5" opacity="1"></path><path fill="none" stroke="#f2f2f2" stroke-width="1" stroke-dasharray="none" class="highcharts-minor-grid-line" d="M 74 192.5 L 590 192.5" opacity="1"></path><path fill="none" stroke="#f2f2f2" stroke-width="1" stroke-dasharray="none" class="highcharts-minor-grid-line" d="M 74 189.5 L 590 189.5" opacity="1"></path><path fill="none" stroke="#f2f2f2" stroke-width="1" stroke-dasharray="none" class="highcharts-minor-grid-line" d="M 74 169.5 L 590 169.5" opacity="1"></path><path fill="none" stroke="#f2f2f2" stroke-width="1" stroke-dasharray="none" class="highcharts-minor-grid-line" d="M 74 157.5 L 590 157.5" opacity="1"></path><path fill="none" stroke="#f2f2f2" stroke-width="1" stroke-dasharray="none" class="highcharts-minor-grid-line" d="M 74 148.5 L 590 148.5" opacity="1"></path><path fill="none" stroke="#f2f2f2" stroke-width="1" stroke-dasharray="none" class="highcharts-minor-grid-line" d="M 74 141.5 L 590 141.5" opacity="1"></path><path fill="none" stroke="#f2f2f2" stroke-width="1" stroke-dasharray="none" class="highcharts-minor-grid-line" d="M 74 136.5 L 590 136.5" opacity="1"></path><path fill="none" stroke="#f2f2f2" stroke-width="1" stroke-dasharray="none" class="highcharts-minor-grid-line" d="M 74 132.5 L 590 132.5" opacity="1"></path><path fill="none" stroke="#f2f2f2" stroke-width="1" stroke-dasharray="none" class="highcharts-minor-grid-line" d="M 74 128.5 L 590 128.5" opacity="1"></path><path fill="none" stroke="#f2f2f2" stroke-width="1" stroke-dasharray="none" class="highcharts-minor-grid-line" d="M 74 124.5 L 590 124.5" opacity="1"></path><path fill="none" stroke="#f2f2f2" stroke-width="1" stroke-dasharray="none" class="highcharts-minor-grid-line" d="M 74 121.5 L 590 121.5" opacity="1"></path><path fill="none" stroke="#f2f2f2" stroke-width="1" stroke-dasharray="none" class="highcharts-minor-grid-line" d="M 74 101.5 L 590 101.5" opacity="1"></path><path fill="none" stroke="#f2f2f2" stroke-width="1" stroke-dasharray="none" class="highcharts-minor-grid-line" d="M 74 89.5 L 590 89.5" opacity="1"></path><path fill="none" stroke="#f2f2f2" stroke-width="1" stroke-dasharray="none" class="highcharts-minor-grid-line" d="M 74 80.5 L 590 80.5" opacity="1"></path><path fill="none" stroke="#f2f2f2" stroke-width="1" stroke-dasharray="none" class="highcharts-minor-grid-line" d="M 74 73.5 L 590 73.5" opacity="1"></path><path fill="none" stroke="#f2f2f2" stroke-width="1" stroke-dasharray="none" class="highcharts-minor-grid-line" d="M 74 68.5 L 590 68.5" opacity="1"></path><path fill="none" stroke="#f2f2f2" stroke-width="1" stroke-dasharray="none" class="highcharts-minor-grid-line" d="M 74 64.5 L 590 64.5" opacity="1"></path><path fill="none" stroke="#f2f2f2" stroke-width="1" stroke-dasharray="none" class="highcharts-minor-grid-line" d="M 74 60.5 L 590 60.5" opacity="1"></path><path fill="none" stroke="#f2f2f2" stroke-width="1" stroke-dasharray="none" class="highcharts-minor-grid-line" d="M 74 56.5 L 590 56.5" opacity="1"></path><path fill="none" stroke="#f2f2f2" stroke-width="1" stroke-dasharray="none" class="highcharts-minor-grid-line" d="M 74 52.5 L 590 52.5" opacity="1"></path><path fill="none" stroke="#e6e6e6" stroke-width="1" stroke-dasharray="none" data-z-index="1" class="highcharts-grid-line" d="M 74 325.5 L 590 325.5" opacity="1"></path><path fill="none" stroke="#e6e6e6" stroke-width="1" stroke-dasharray="none" data-z-index="1" class="highcharts-grid-line" d="M 74 257.5 L 590 257.5" opacity="1"></path><path fill="none" stroke="#e6e6e6" stroke-width="1" stroke-dasharray="none" data-z-index="1" class="highcharts-grid-line" d="M 74 189.5 L 590 189.5" opacity="1"></path><path fill="none" stroke="#e6e6e6" stroke-width="1" stroke-dasharray="none" data-z-index="1" class="highcharts-grid-line" d="M 74 121.5 L 590 121.5" opacity="1"></path><path fill="none" stroke="#e6e6e6" stroke-width="1" stroke-dasharray="none" data-z-index="1" class="highcharts-grid-line" d="M 74 52.5 L 590 52.5" opacity="1"></path></g><rect fill="none" class="highcharts-plot-border" data-z-index="1" x="74" y="53" width="516" height="272" aria-hidden="true"></rect><g class="highcharts-axis highcharts-xaxis" data-z-index="2" aria-hidden="true"><path fill="none" class="highcharts-tick" stroke="#ccd6eb" stroke-width="1" d="M 78.5 325 L 78.5 335" opacity="1"></path><path fill="none" class="highcharts-tick" stroke="#ccd6eb" stroke-width="1" d="M 584.5 325 L 584.5 335" opacity="1"></path><path fill="none" class="highcharts-axis-line" stroke="#ccd6eb" stroke-width="1" data-z-index="7" d="M 74 325.5 L 590 325.5"></path></g><g class="highcharts-axis highcharts-yaxis" data-z-index="2" aria-hidden="true"><text x="26.0888671875" data-z-index="7" text-anchor="middle" transform="translate(0,0) rotate(270 26.0888671875 189)" class="highcharts-axis-title" style="color: rgb(102, 102, 102); fill: rgb(102, 102, 102);" y="189">Values</text><path fill="none" class="highcharts-axis-line" data-z-index="7" d="M 74 53 L 74 325"></path></g><g class="highcharts-series-group" data-z-index="3" aria-hidden="false"><g class="highcharts-series highcharts-series-0 highcharts-line-series highcharts-color-0" data-z-index="0.1" opacity="1" transform="translate(74,53) scale(1 1)" clip-path="url(#highcharts-ohpkqqh-29-)" aria-hidden="true"><path fill="none" d="M 5.0588235294118 204 L 157.34458604178 183.529960294849 L 246.42604650524 163.0599205897 L 309.63034855415 142.58988088455 L 358.65541395822 122.1198411794 L 398.71180901761 101.64980147425001 L 432.5790084778 81.1797617691 L 461.91611106651 60.709722063940006 L 487.79326948107 40.23968235878999 L 510.94117647059 19.769642653640005" class="highcharts-graph" data-z-index="1" stroke="#7cb5ec" stroke-width="2" stroke-linejoin="round" stroke-linecap="round"></path></g><g class="highcharts-markers highcharts-series-0 highcharts-line-series highcharts-color-0" data-z-index="0.1" opacity="1" transform="translate(74,53) scale(1 1)" clip-path="none" aria-hidden="false"><path fill="#7cb5ec" d="M 5 208 A 4 4 0 1 1 5.0039999993333355 207.99999800000018 Z" opacity="1" class="highcharts-point highcharts-color-0" tabindex="-1" role="img" aria-label="x, 1, 1." style="outline: none;"></path><path fill="#7cb5ec" d="M 157 188 A 4 4 0 1 1 157.00399999933333 187.99999800000018 Z" opacity="1" class="highcharts-point highcharts-color-0" tabindex="-1" role="img" aria-label="x, 2, 2." style="outline: none;"></path><path fill="#7cb5ec" d="M 246 167 A 4 4 0 1 1 246.00399999933333 166.99999800000018 Z" opacity="1" class="highcharts-point highcharts-color-0" tabindex="-1" role="img" aria-label="x, 3, 4." style="outline: none;"></path><path fill="#7cb5ec" d="M 309 147 A 4 4 0 1 1 309.00399999933336 146.99999800000018 Z" opacity="1" class="highcharts-point highcharts-color-0" tabindex="-1" role="img" aria-label="x, 4, 8." style="outline: none;"></path><path fill="#7cb5ec" d="M 358 126 A 4 4 0 1 1 358.00399999933336 125.99999800000016 Z" opacity="1" class="highcharts-point highcharts-color-0" tabindex="-1" role="img" aria-label="x, 5, 16." style="outline: none;"></path><path fill="#7cb5ec" d="M 398 106 A 4 4 0 1 1 398.00399999933336 105.99999800000016 Z" opacity="1" class="highcharts-point highcharts-color-0" tabindex="-1" role="img" aria-label="x, 6, 32." style="outline: none;"></path><path fill="#7cb5ec" d="M 432 85 A 4 4 0 1 1 432.00399999933336 84.99999800000016 Z" opacity="1" class="highcharts-point highcharts-color-0" tabindex="-1" role="img" aria-label="x, 7, 64." style="outline: none;"></path><path fill="#7cb5ec" d="M 461 65 A 4 4 0 1 1 461.00399999933336 64.99999800000016 Z" opacity="1" class="highcharts-point highcharts-color-0" tabindex="-1" role="img" aria-label="x, 8, 128." style="outline: none;"></path><path fill="#7cb5ec" d="M 487 44 A 4 4 0 1 1 487.00399999933336 43.99999800000017 Z" opacity="1" class="highcharts-point highcharts-color-0" tabindex="-1" role="img" aria-label="x, 9, 256." style="outline: none;"></path><path fill="#7cb5ec" d="M 510 24 A 4 4 0 1 1 510.00399999933336 23.99999800000017 Z" opacity="1" class="highcharts-point highcharts-color-0" tabindex="-1" role="img" aria-label="x, 10, 512." style="outline: none;"></path></g></g><text x="300" text-anchor="middle" class="highcharts-title" data-z-index="4" style="color: rgb(51, 51, 51); font-size: 18px; fill: rgb(51, 51, 51);" y="24" aria-hidden="true">Logarithmic axis demo</text><text x="300" text-anchor="middle" class="highcharts-subtitle" data-z-index="4" style="color: rgb(102, 102, 102); fill: rgb(102, 102, 102);" y="52" aria-hidden="true"></text><text x="10" text-anchor="start" class="highcharts-caption" data-z-index="4" style="color: rgb(102, 102, 102); fill: rgb(102, 102, 102);" y="397" aria-hidden="true"></text><g class="highcharts-legend highcharts-no-tooltip" data-z-index="7" transform="translate(258,359)" aria-hidden="true"><rect fill="none" class="highcharts-legend-box" rx="0" ry="0" x="0" y="0" width="83" height="26"></rect><g data-z-index="1"><g><g class="highcharts-legend-item highcharts-line-series highcharts-color-0 highcharts-series-0" data-z-index="1" transform="translate(8,3)"><path fill="none" d="M 0 11 L 16 11" class="highcharts-graph" stroke="#7cb5ec" stroke-width="2"></path><path fill="#7cb5ec" d="M 8 15 A 4 4 0 1 1 8.003999999333336 14.999998000000167 Z" class="highcharts-point" opacity="1"></path><text x="21" text-anchor="start" data-z-index="2" y="15" style="color: rgb(51, 51, 51); cursor: pointer; font-size: 12px; font-weight: bold; fill: rgb(51, 51, 51);">Series 1</text></g></g></g></g><g class="highcharts-axis-labels highcharts-xaxis-labels" data-z-index="7" aria-hidden="true"><text x="79.058823529412" style="color: rgb(102, 102, 102); cursor: default; font-size: 11px; fill: rgb(102, 102, 102);" text-anchor="middle" transform="translate(0,0)" y="344" opacity="1">1</text><text x="583.022216796875" style="color: rgb(102, 102, 102); cursor: default; font-size: 11px; fill: rgb(102, 102, 102);" text-anchor="middle" transform="translate(0,0)" y="344" opacity="1">10</text></g><g class="highcharts-axis-labels highcharts-yaxis-labels" data-z-index="7" aria-hidden="true"><text x="59" style="color: rgb(102, 102, 102); cursor: default; font-size: 11px; fill: rgb(102, 102, 102);" text-anchor="end" transform="translate(0,0)" y="329" opacity="1">0.1</text><text x="59" style="color: rgb(102, 102, 102); cursor: default; font-size: 11px; fill: rgb(102, 102, 102);" text-anchor="end" transform="translate(0,0)" y="261" opacity="1">1</text><text x="59" style="color: rgb(102, 102, 102); cursor: default; font-size: 11px; fill: rgb(102, 102, 102);" text-anchor="end" transform="translate(0,0)" y="193" opacity="1">10</text><text x="59" style="color: rgb(102, 102, 102); cursor: default; font-size: 11px; fill: rgb(102, 102, 102);" text-anchor="end" transform="translate(0,0)" y="125" opacity="1">100</text><text x="59" style="color: rgb(102, 102, 102); cursor: default; font-size: 11px; fill: rgb(102, 102, 102);" text-anchor="end" transform="translate(0,0)" y="57" opacity="1">1k</text></g><text x="590" class="highcharts-credits" text-anchor="end" data-z-index="8" y="395" style="cursor: pointer; color: rgb(153, 153, 153); font-size: 9px; fill: rgb(153, 153, 153);" aria-label="Chart credits: Highcharts.com" aria-hidden="false">Highcharts.com</text></svg>